<?xml version="1.0" encoding="UTF-8" standalone="no"?>
<!-- Created by diasvg.py -->

<svg
   xmlns:dc="http://purl.org/dc/elements/1.1/"
   xmlns:cc="http://creativecommons.org/ns#"
   xmlns:rdf="http://www.w3.org/1999/02/22-rdf-syntax-ns#"
   xmlns:svg="http://www.w3.org/2000/svg"
   xmlns="http://www.w3.org/2000/svg"
   xmlns:sodipodi="http://sodipodi.sourceforge.net/DTD/sodipodi-0.dtd"
   xmlns:inkscape="http://www.inkscape.org/namespaces/inkscape"
   width="1234.7841"
   height="832.1214"
   viewBox="3.891 6.255 37.813341 26.65185"
   id="svg3254"
   version="1.1"
   inkscape:version="0.47pre4 r22446"
   sodipodi:docname="verification-process.svg">
  <metadata
     id="metadata3646">
    <rdf:RDF>
      <cc:Work
         rdf:about="">
        <dc:format>image/svg+xml</dc:format>
        <dc:type
           rdf:resource="http://purl.org/dc/dcmitype/StillImage" />
      </cc:Work>
    </rdf:RDF>
  </metadata>
  <defs
     id="defs3644">
    <inkscape:perspective
       sodipodi:type="inkscape:persp3d"
       inkscape:vp_x="0 : 821.60431 : 1"
       inkscape:vp_y="0 : 1000 : 0"
       inkscape:vp_z="1620.4252 : 821.60431 : 1"
       inkscape:persp3d-origin="810.21259 : 547.73621 : 1"
       id="perspective3648" />
  </defs>
  <sodipodi:namedview
     pagecolor="#ffffff"
     bordercolor="#666666"
     borderopacity="1"
     objecttolerance="10"
     gridtolerance="10"
     guidetolerance="10"
     inkscape:pageopacity="0"
     inkscape:pageshadow="2"
     inkscape:window-width="1360"
     inkscape:window-height="743"
     id="namedview3642"
     showgrid="false"
     inkscape:zoom="0.57692005"
     inkscape:cx="650.69716"
     inkscape:cy="395.73132"
     inkscape:window-x="0"
     inkscape:window-y="1"
     inkscape:window-maximized="1"
     inkscape:current-layer="svg3254" />
  <polygon
     points="15.564,6.625 16.564,7.925 14.564,7.925 "
     id="polygon3256"
     transform="translate(-5.5134222,2.1844439)"
     style="fill:#ffffff;stroke:none" />
  <polygon
     points="15.564,6.625 16.564,7.925 14.564,7.925 "
     id="polygon3258"
     transform="translate(-5.5134222,2.1844439)"
     style="fill:none;stroke:#000000;stroke-width:0.1" />
  <rect
     x="9.1135778"
     y="10.147444"
     width="1.9349999"
     height="2"
     id="rect3260"
     style="fill:#ffffff;stroke:none" />
  <rect
     x="9.1135778"
     y="10.147444"
     width="1.9349999"
     height="2"
     id="rect3262"
     style="fill:none;stroke:#000000;stroke-width:0.1" />
  <rect
     x="9.1135778"
     y="10.147444"
     width="1.9349999"
     height="2"
     id="rect3264"
     style="fill:none;stroke:#000000;stroke-width:0.1" />
  <line
     x1="8.6315784"
     y1="13.004443"
     x2="11.491576"
     y2="13.004443"
     id="line3266"
     style="stroke:#000000;stroke-width:0.1" />
  <line
     x1="8.6315784"
     y1="13.231443"
     x2="11.491576"
     y2="13.231443"
     id="line3268"
     style="stroke:#000000;stroke-width:0.1" />
  <line
     x1="8.6315784"
     y1="13.458445"
     x2="11.491576"
     y2="13.458445"
     id="line3270"
     style="stroke:#000000;stroke-width:0.1" />
  <line
     x1="8.6315784"
     y1="13.686443"
     x2="11.491576"
     y2="13.686443"
     id="line3272"
     style="stroke:#000000;stroke-width:0.1" />
  <line
     x1="8.6315784"
     y1="13.913444"
     x2="11.491576"
     y2="13.913444"
     id="line3274"
     style="stroke:#000000;stroke-width:0.1" />
  <line
     x1="8.6315784"
     y1="14.141443"
     x2="11.491576"
     y2="14.141443"
     id="line3276"
     style="stroke:#000000;stroke-width:0.1" />
  <line
     x1="8.6315784"
     y1="14.368443"
     x2="11.491576"
     y2="14.368443"
     id="line3278"
     style="stroke:#000000;stroke-width:0.1" />
  <line
     x1="8.6315784"
     y1="14.596443"
     x2="11.491576"
     y2="14.596443"
     id="line3280"
     style="stroke:#000000;stroke-width:0.1" />
  <polygon
     points="21.111,6.625 22.111,7.925 20.111,7.925 "
     id="polygon3282"
     transform="translate(-5.5134222,2.1844439)"
     style="fill:#ffffff;stroke:none" />
  <polygon
     points="21.111,6.625 22.111,7.925 20.111,7.925 "
     id="polygon3284"
     transform="translate(-5.5134222,2.1844439)"
     style="fill:none;stroke:#000000;stroke-width:0.1" />
  <rect
     x="14.659577"
     y="10.147444"
     width="1.9349999"
     height="2"
     id="rect3286"
     style="fill:#ffffff;stroke:none" />
  <rect
     x="14.659577"
     y="10.147444"
     width="1.9349999"
     height="2"
     id="rect3288"
     style="fill:none;stroke:#000000;stroke-width:0.1" />
  <rect
     x="14.659577"
     y="10.147444"
     width="1.9349999"
     height="2"
     id="rect3290"
     style="fill:none;stroke:#000000;stroke-width:0.1" />
  <line
     x1="14.178576"
     y1="13.004443"
     x2="17.037579"
     y2="13.004443"
     id="line3292"
     style="stroke:#000000;stroke-width:0.1" />
  <line
     x1="14.178576"
     y1="13.231443"
     x2="17.037579"
     y2="13.231443"
     id="line3294"
     style="stroke:#000000;stroke-width:0.1" />
  <line
     x1="14.178576"
     y1="13.458445"
     x2="17.037579"
     y2="13.458445"
     id="line3296"
     style="stroke:#000000;stroke-width:0.1" />
  <line
     x1="14.178576"
     y1="13.686443"
     x2="17.037579"
     y2="13.686443"
     id="line3298"
     style="stroke:#000000;stroke-width:0.1" />
  <line
     x1="14.178576"
     y1="13.913444"
     x2="17.037579"
     y2="13.913444"
     id="line3300"
     style="stroke:#000000;stroke-width:0.1" />
  <line
     x1="14.178576"
     y1="14.141443"
     x2="17.037579"
     y2="14.141443"
     id="line3302"
     style="stroke:#000000;stroke-width:0.1" />
  <line
     x1="14.178576"
     y1="14.368443"
     x2="17.037579"
     y2="14.368443"
     id="line3304"
     style="stroke:#000000;stroke-width:0.1" />
  <line
     x1="14.178576"
     y1="14.596443"
     x2="17.037579"
     y2="14.596443"
     id="line3306"
     style="stroke:#000000;stroke-width:0.1" />
  <path
     d="m 14.320578,26.656444 a 12.238,12.238 0 0 0 18.748,-0.373"
     id="path3308"
     style="fill:none;stroke:#000000;stroke-width:0.1" />
  <polygon
     points="19.827,24.478 19.711,24.733 19.592,24.186 20.1,24.419 "
     id="polygon3310"
     transform="translate(-5.5134222,2.1844439)"
     style="fill:#000000;stroke:none" />
  <polygon
     points="19.827,24.478 19.711,24.733 19.592,24.186 20.1,24.419 "
     id="polygon3312"
     transform="translate(-5.5134222,2.1844439)"
     style="fill:none;stroke:#000000;stroke-width:0.1" />
  <line
     x1="15.544578"
     y1="15.024445"
     x2="15.122577"
     y2="16.946444"
     id="line3314"
     style="stroke:#000000;stroke-width:0.1" />
  <polygon
     points="20.392,14.708 20.529,15.25 20.88,14.815 "
     id="polygon3316"
     transform="translate(-5.5134222,2.1844439)"
     style="fill:#000000;stroke:none" />
  <polygon
     points="20.392,14.708 20.529,15.25 20.88,14.815 "
     id="polygon3318"
     transform="translate(-5.5134222,2.1844439)"
     style="fill:none;stroke:#000000;stroke-width:0.1" />
  <line
     x1="10.068578"
     y1="15.207443"
     x2="10.393577"
     y2="17.264442"
     id="line3320"
     style="stroke:#000000;stroke-width:0.1" />
  <polygon
     points="15.66,15.119 15.986,15.574 16.154,15.041 "
     id="polygon3322"
     transform="translate(-5.5134222,2.1844439)"
     style="fill:#000000;stroke:none" />
  <polygon
     points="15.66,15.119 15.986,15.574 16.154,15.041 "
     id="polygon3324"
     transform="translate(-5.5134222,2.1844439)"
     style="fill:none;stroke:#000000;stroke-width:0.1" />
  <path
     d="M 9.1724542,19.590215 A 1.5990441,2.040617 0 1 0 9.540195,23.129958"
     id="path3326"
     style="fill:none;stroke:#000000;stroke-width:0.08876598" />
  <polygon
     points="14.458,17.544 15.008,17.641 14.756,17.142 "
     id="polygon3328"
     transform="translate(-5.5134222,2.1844439)"
     style="fill:#000000;stroke:none" />
  <polygon
     points="14.458,17.544 15.008,17.641 14.756,17.142 "
     id="polygon3330"
     transform="translate(-5.5134222,2.1844439)"
     style="fill:none;stroke:#000000;stroke-width:0.1" />
  <path
     d="m 33.800578,9.9184443 a 12.059,12.059 0 0 0 -17.48,8.0799997"
     id="path3332"
     style="fill:none;stroke:#000000;stroke-width:0.1" />
  <polygon
     points="39.319,7.725 39.338,7.447 39.642,7.916 39.084,7.877 "
     id="polygon3334"
     transform="translate(-5.5134222,2.1844439)"
     style="fill:#000000;stroke:none" />
  <polygon
     points="39.319,7.725 39.338,7.447 39.642,7.916 39.084,7.877 "
     id="polygon3336"
     transform="translate(-5.5134222,2.1844439)"
     style="fill:none;stroke:#000000;stroke-width:0.1" />
  <ellipse
     cx="41.658001"
     cy="8.7659998"
     rx="0.30000001"
     ry="0.30000001"
     id="ellipse3338"
     sodipodi:cx="41.658001"
     sodipodi:cy="8.7659998"
     sodipodi:rx="0.30000001"
     sodipodi:ry="0.30000001"
     transform="translate(-5.5134222,2.1844439)"
     style="fill:#ffffff;stroke:none" />
  <ellipse
     cx="41.658001"
     cy="8.7659998"
     rx="0.30000001"
     ry="0.30000001"
     id="ellipse3340"
     sodipodi:cx="41.658001"
     sodipodi:cy="8.7659998"
     sodipodi:rx="0.30000001"
     sodipodi:ry="0.30000001"
     transform="translate(-5.5134222,2.1844439)"
     style="fill:none;stroke:#000000;stroke-width:0.1" />
  <line
     x1="34.944576"
     y1="11.550444"
     x2="37.344578"
     y2="11.550444"
     id="line3342"
     style="stroke:#000000;stroke-width:0.1" />
  <line
     x1="36.144577"
     y1="11.250443"
     x2="36.144577"
     y2="12.750443"
     id="line3344"
     style="stroke:#000000;stroke-width:0.1" />
  <line
     x1="36.144577"
     y1="12.750443"
     x2="34.944576"
     y2="14.050444"
     id="line3346"
     style="stroke:#000000;stroke-width:0.1" />
  <line
     x1="36.144577"
     y1="12.750443"
     x2="37.344578"
     y2="14.050444"
     id="line3348"
     style="stroke:#000000;stroke-width:0.1" />
  <ellipse
     cx="43.841"
     cy="7.6529999"
     rx="0.30000001"
     ry="0.30000001"
     id="ellipse3350"
     sodipodi:cx="43.841"
     sodipodi:cy="7.6529999"
     sodipodi:rx="0.30000001"
     sodipodi:ry="0.30000001"
     transform="translate(-5.5134222,2.1844439)"
     style="fill:#ffffff;stroke:none" />
  <ellipse
     cx="43.841"
     cy="7.6529999"
     rx="0.30000001"
     ry="0.30000001"
     id="ellipse3352"
     sodipodi:cx="43.841"
     sodipodi:cy="7.6529999"
     sodipodi:rx="0.30000001"
     sodipodi:ry="0.30000001"
     transform="translate(-5.5134222,2.1844439)"
     style="fill:none;stroke:#000000;stroke-width:0.1" />
  <line
     x1="37.127575"
     y1="10.437444"
     x2="39.527576"
     y2="10.437444"
     id="line3354"
     style="stroke:#000000;stroke-width:0.1" />
  <line
     x1="38.327576"
     y1="10.137444"
     x2="38.327576"
     y2="11.637444"
     id="line3356"
     style="stroke:#000000;stroke-width:0.1" />
  <line
     x1="38.327576"
     y1="11.637444"
     x2="37.127575"
     y2="12.937444"
     id="line3358"
     style="stroke:#000000;stroke-width:0.1" />
  <line
     x1="38.327576"
     y1="11.637444"
     x2="39.527576"
     y2="12.937444"
     id="line3360"
     style="stroke:#000000;stroke-width:0.1" />
  <ellipse
     cx="45.952"
     cy="8.8699999"
     rx="0.30000001"
     ry="0.30000001"
     id="ellipse3362"
     sodipodi:cx="45.952"
     sodipodi:cy="8.8699999"
     sodipodi:rx="0.30000001"
     sodipodi:ry="0.30000001"
     transform="translate(-5.5134222,2.1844439)"
     style="fill:#ffffff;stroke:none" />
  <ellipse
     cx="45.952"
     cy="8.8699999"
     rx="0.30000001"
     ry="0.30000001"
     id="ellipse3364"
     sodipodi:cx="45.952"
     sodipodi:cy="8.8699999"
     sodipodi:rx="0.30000001"
     sodipodi:ry="0.30000001"
     transform="translate(-5.5134222,2.1844439)"
     style="fill:none;stroke:#000000;stroke-width:0.1" />
  <line
     x1="39.238575"
     y1="11.654444"
     x2="41.638577"
     y2="11.654444"
     id="line3366"
     style="stroke:#000000;stroke-width:0.1" />
  <line
     x1="40.438576"
     y1="11.354444"
     x2="40.438576"
     y2="12.854444"
     id="line3368"
     style="stroke:#000000;stroke-width:0.1" />
  <line
     x1="40.438576"
     y1="12.854444"
     x2="39.238575"
     y2="14.154444"
     id="line3370"
     style="stroke:#000000;stroke-width:0.1" />
  <line
     x1="40.438576"
     y1="12.854444"
     x2="41.638577"
     y2="14.154444"
     id="line3372"
     style="stroke:#000000;stroke-width:0.1" />
  <g
     id="g3673"
     transform="translate(-5.5134222,1.5563421)">
    <text
       style="font-size:0.80000001px;font-style:normal;font-weight:400;text-anchor:start;fill:#000000;font-family:sans"
       id="text3374"
       font-weight="400"
       font-style="normal"
       font-size="0.80"
       y="13.378101"
       x="41.743999">Participatory</text>
    <text
       style="font-size:0.80000001px;font-style:normal;font-weight:400;text-anchor:start;fill:#000000;font-family:sans"
       id="text3376"
       font-weight="400"
       font-style="normal"
       font-size="0.80"
       y="14.178102"
       x="41.743999">Design Group</text>
  </g>
  <g
     id="g3660"
     transform="translate(-5.065019,1.5563421)">
    <text
       style="font-size:0.80000001px;font-style:normal;font-weight:400;text-anchor:start;fill:#000000;font-family:sans"
       id="text3378"
       font-weight="400"
       font-style="normal"
       font-size="0.80"
       y="19.066101"
       x="8.247426">Calibrate</text>
    <text
       style="font-size:0.80000001px;font-style:normal;font-weight:400;text-anchor:start;fill:#000000;font-family:sans"
       id="text3380"
       font-weight="400"
       font-style="normal"
       font-size="0.80"
       y="19.866102"
       x="8.247426">model</text>
    <text
       style="font-size:0.80000001px;font-style:normal;font-weight:400;text-anchor:start;fill:#000000;font-family:sans"
       id="text3382"
       font-weight="400"
       font-style="normal"
       font-size="0.80"
       y="20.666101"
       x="8.247426">from</text>
    <text
       style="font-size:0.80000001px;font-style:normal;font-weight:400;text-anchor:start;fill:#000000;font-family:sans"
       id="text3384"
       font-weight="400"
       font-style="normal"
       font-size="0.80"
       y="21.466101"
       x="8.247426">data</text>
  </g>
  <g
     id="g3666"
     transform="translate(-5.5134222,1.5563421)">
    <text
       style="font-size:0.80000001px;font-style:normal;font-weight:400;text-anchor:start;fill:#000000;font-family:sans"
       id="text3386"
       font-weight="400"
       font-style="normal"
       font-size="0.80"
       y="9.2841015"
       x="9.3149996">Feed Data</text>
    <text
       style="font-size:0.80000001px;font-style:normal;font-weight:400;text-anchor:start;fill:#000000;font-family:sans"
       id="text3388"
       font-weight="400"
       font-style="normal"
       font-size="0.80"
       y="10.084102"
       x="9.3149996">Into model</text>
    <text
       style="font-size:0.80000001px;font-style:normal;font-weight:400;text-anchor:start;fill:#000000;font-family:sans"
       id="text3390"
       font-weight="400"
       font-style="normal"
       font-size="0.80"
       y="10.884101"
       x="9.3149996">from</text>
    <text
       style="font-size:0.80000001px;font-style:normal;font-weight:400;text-anchor:start;fill:#000000;font-family:sans"
       id="text3392"
       font-weight="400"
       font-style="normal"
       font-size="0.80"
       y="11.684101"
       x="9.3149996">observation</text>
    <text
       style="font-size:0.80000001px;font-style:normal;font-weight:400;text-anchor:start;fill:#000000;font-family:sans"
       id="text3394"
       font-weight="400"
       font-style="normal"
       font-size="0.80"
       y="12.484101"
       x="9.3149996">stations</text>
  </g>
  <g
     id="g4788">
    <ellipse
       style="fill:#ffffff;stroke:none"
       transform="translate(-5.5134222,2.1844439)"
       sodipodi:ry="1.182"
       sodipodi:rx="1.124"
       sodipodi:cy="17.042"
       sodipodi:cx="16.646"
       id="ellipse3438"
       ry="1.182"
       rx="1.124"
       cy="17.042"
       cx="16.646" />
    <ellipse
       style="fill:none;stroke:#000000;stroke-width:0.1"
       transform="translate(-5.5134222,2.1844439)"
       sodipodi:ry="1.182"
       sodipodi:rx="1.124"
       sodipodi:cy="17.042"
       sodipodi:cx="16.646"
       id="ellipse3440"
       ry="1.182"
       rx="1.124"
       cy="17.042"
       cx="16.646" />
    <text
       style="font-size:0.80000001px;font-style:normal;font-weight:400;text-anchor:middle;fill:#000000;font-family:sans"
       id="text3442"
       font-weight="400"
       font-style="normal"
       font-size="0.80"
       y="19.421442"
       x="11.132577">X</text>
    <ellipse
       style="fill:#ffffff;stroke:none"
       transform="translate(-5.5134222,2.1844439)"
       sodipodi:ry="1.14"
       sodipodi:rx="1.0829999"
       sodipodi:cy="22.372"
       sodipodi:cx="20.493"
       id="ellipse3444"
       ry="1.14"
       rx="1.0829999"
       cy="22.372"
       cx="20.493" />
    <ellipse
       style="fill:none;stroke:#000000;stroke-width:0.1"
       transform="translate(-5.5134222,2.1844439)"
       sodipodi:ry="1.14"
       sodipodi:rx="1.0829999"
       sodipodi:cy="22.372"
       sodipodi:cx="20.493"
       id="ellipse3446"
       ry="1.14"
       rx="1.0829999"
       cy="22.372"
       cx="20.493" />
    <text
       style="font-size:0.80000001px;font-style:normal;font-weight:400;text-anchor:middle;fill:#000000;font-family:sans"
       id="text3448"
       font-weight="400"
       font-style="normal"
       font-size="0.80"
       y="24.751442"
       x="14.979577">Y</text>
    <ellipse
       style="fill:#ffffff;stroke:none"
       transform="translate(-5.5134222,2.1844439)"
       sodipodi:ry="1.14"
       sodipodi:rx="1.0829999"
       sodipodi:cy="22.502001"
       sodipodi:cx="16.629999"
       id="ellipse3450"
       ry="1.14"
       rx="1.0829999"
       cy="22.502001"
       cx="16.629999" />
    <ellipse
       style="fill:none;stroke:#000000;stroke-width:0.1"
       transform="translate(-5.5134222,2.1844439)"
       sodipodi:ry="1.14"
       sodipodi:rx="1.0829999"
       sodipodi:cy="22.502001"
       sodipodi:cx="16.629999"
       id="ellipse3452"
       ry="1.14"
       rx="1.0829999"
       cy="22.502001"
       cx="16.629999" />
    <text
       style="font-size:0.80000001px;font-style:normal;font-weight:400;text-anchor:middle;fill:#000000;font-family:sans"
       id="text3454"
       font-weight="400"
       font-style="normal"
       font-size="0.80"
       y="24.881443"
       x="11.116576">Z</text>
    <ellipse
       style="fill:#ffffff;stroke:none"
       transform="translate(-5.5134222,2.1844439)"
       sodipodi:ry="1.14"
       sodipodi:rx="1.0829999"
       sodipodi:cy="16.832001"
       sodipodi:cx="20.488001"
       id="ellipse3456"
       ry="1.14"
       rx="1.0829999"
       cy="16.832001"
       cx="20.488001" />
    <ellipse
       style="fill:none;stroke:#000000;stroke-width:0.1"
       transform="translate(-5.5134222,2.1844439)"
       sodipodi:ry="1.14"
       sodipodi:rx="1.0829999"
       sodipodi:cy="16.832001"
       sodipodi:cx="20.488001"
       id="ellipse3458"
       ry="1.14"
       rx="1.0829999"
       cy="16.832001"
       cx="20.488001" />
    <text
       style="font-size:0.80000001px;font-style:normal;font-weight:400;text-anchor:middle;fill:#000000;font-family:sans"
       id="text3460"
       font-weight="400"
       font-style="normal"
       font-size="0.80"
       y="19.211443"
       x="14.974578">W</text>
    <line
       style="stroke:#000000;stroke-width:0.1"
       id="line3462"
       y2="23.010443"
       x2="11.121577"
       y1="20.459442"
       x1="11.128577" />
    <polygon
       style="fill:#000000;stroke:none"
       transform="translate(-5.5134222,2.1844439)"
       id="polygon3464"
       points="16.635,20.826 16.885,20.702 16.633,21.201 16.385,20.7 " />
    <polygon
       style="fill:none;stroke:#000000;stroke-width:0.1"
       transform="translate(-5.5134222,2.1844439)"
       id="polygon3466"
       points="16.635,20.826 16.885,20.702 16.633,21.201 16.385,20.7 " />
    <line
       style="stroke:#000000;stroke-width:0.1"
       id="line3468"
       y2="22.890442"
       x2="14.978578"
       y1="20.196442"
       x1="14.975577" />
    <polygon
       style="fill:#000000;stroke:none"
       transform="translate(-5.5134222,2.1844439)"
       id="polygon3470"
       points="20.492,20.706 20.741,20.581 20.492,21.081 20.241,20.581 " />
    <polygon
       style="fill:none;stroke:#000000;stroke-width:0.1"
       transform="translate(-5.5134222,2.1844439)"
       id="polygon3472"
       points="20.492,20.706 20.741,20.581 20.492,21.081 20.241,20.581 " />
    <line
       style="stroke:#000000;stroke-width:0.1"
       id="line3474"
       y2="23.316442"
       x2="12.048577"
       y1="19.984442"
       x1="14.315578" />
    <polygon
       style="fill:#000000;stroke:none"
       transform="translate(-5.5134222,2.1844439)"
       id="polygon3476"
       points="17.562,21.132 17.839,21.169 17.351,21.442 17.426,20.888 " />
    <polygon
       style="fill:none;stroke:#000000;stroke-width:0.1"
       transform="translate(-5.5134222,2.1844439)"
       id="polygon3478"
       points="17.562,21.132 17.839,21.169 17.351,21.442 17.426,20.888 " />
  </g>
  <path
     d="m 36.498578,21.159444 a 5.655,5.655 0 0 0 2.168,-4.857"
     id="path3480"
     style="fill:none;stroke:#000000;stroke-width:0.1" />
  <polygon
     points="41.895,18.785 41.606,19.263 42.162,19.207 "
     id="polygon3482"
     transform="translate(-5.5134222,2.1844439)"
     style="fill:#000000;stroke:none" />
  <polygon
     points="41.895,18.785 41.606,19.263 42.162,19.207 "
     id="polygon3484"
     transform="translate(-5.5134222,2.1844439)"
     style="fill:none;stroke:#000000;stroke-width:0.1" />
  <g
     id="g3677"
     transform="translate(-5.5134222,1.5563421)">
    <text
       style="font-size:0.80000001px;font-style:normal;font-weight:400;text-anchor:start;fill:#000000;font-family:sans"
       id="text3486"
       font-weight="400"
       font-style="normal"
       font-size="0.80"
       y="17.363102"
       x="44.241001">Design</text>
    <text
       style="font-size:0.80000001px;font-style:normal;font-weight:400;text-anchor:start;fill:#000000;font-family:sans"
       id="text3488"
       font-weight="400"
       font-style="normal"
       font-size="0.80"
       y="18.163101"
       x="44.241001">Bayesian</text>
    <text
       style="font-size:0.80000001px;font-style:normal;font-weight:400;text-anchor:start;fill:#000000;font-family:sans"
       id="text3490"
       font-weight="400"
       font-style="normal"
       font-size="0.80"
       y="18.9631"
       x="44.241001">Model</text>
  </g>
  <g
     id="g3682"
     transform="translate(-5.5134222,1.5563421)">
    <text
       style="font-size:0.80000001px;font-style:normal;font-weight:400;text-anchor:start;fill:#000000;font-family:sans"
       id="text3492"
       font-weight="400"
       font-style="normal"
       font-size="0.80"
       y="30.384102"
       x="27.021">Hook model into</text>
    <text
       style="font-size:0.80000001px;font-style:normal;font-weight:400;text-anchor:start;fill:#000000;font-family:sans"
       id="text3494"
       font-weight="400"
       font-style="normal"
       font-size="0.80"
       y="31.184101"
       x="27.021">monitoring framework</text>
  </g>
  <g
     id="g3650"
     transform="translate(-5.7696526,1.8766301)">
    <text
       style="font-size:0.80000001px;font-style:normal;font-weight:400;text-anchor:start;fill:#000000;font-family:sans"
       id="text3496"
       font-weight="400"
       font-style="normal"
       font-size="0.80"
       y="5.3064704"
       x="26.353111">Inform design group</text>
    <text
       style="font-size:0.80000001px;font-style:normal;font-weight:400;text-anchor:start;fill:#000000;font-family:sans"
       id="text3498"
       font-weight="400"
       font-style="normal"
       font-size="0.80"
       y="6.1064706"
       x="26.353111">about model errors</text>
    <text
       style="font-size:0.80000001px;font-style:normal;font-weight:400;text-anchor:start;fill:#000000;font-family:sans"
       id="text3500"
       font-weight="400"
       font-style="normal"
       font-size="0.80"
       y="6.9064698"
       x="26.353111">if detected</text>
  </g>
  <g
     id="g3655"
     transform="translate(-6.6126003,1.2815476)">
    <text
       style="font-size:0.80000001px;font-style:normal;font-weight:400;text-anchor:start;fill:#000000;font-family:sans"
       id="text3502"
       font-weight="400"
       font-style="normal"
       font-size="0.80"
       y="19.553101"
       x="26.291">Detect</text>
    <text
       style="font-size:0.80000001px;font-style:normal;font-weight:400;text-anchor:start;fill:#000000;font-family:sans"
       id="text3504"
       font-weight="400"
       font-style="normal"
       font-size="0.80"
       y="20.353102"
       x="26.291">model</text>
    <text
       style="font-size:0.80000001px;font-style:normal;font-weight:400;text-anchor:start;fill:#000000;font-family:sans"
       id="text3506"
       font-weight="400"
       font-style="normal"
       font-size="0.80"
       y="21.153101"
       x="26.291">errors</text>
  </g>
  <path
     d="m 16.67621,23.197812 a 4.9406493,2.156863 0 0 0 0.998522,-3.525736"
     id="path3508"
     style="fill:none;stroke:#000000;stroke-width:0.0960864;stroke-miterlimit:4;stroke-dasharray:none" />
  <polygon
     points="22.742,17.59 22.41,17.216 22.202,17.735 "
     id="polygon3512"
     transform="matrix(0.44338826,0.89632966,-0.89632966,0.44338826,23.247411,-8.26025)"
     style="fill:#000000;stroke:#000000;stroke-width:0.1" />
  <g
     id="g4765"
     transform="translate(0.54958905,0.66735814)">
    <ellipse
       style="fill:#ffffff;stroke:none"
       transform="translate(-5.5134222,2.1844439)"
       sodipodi:ry="1.182"
       sodipodi:rx="1.124"
       sodipodi:cy="16.785"
       sodipodi:cx="36.446999"
       id="ellipse3600"
       ry="1.182"
       rx="1.124"
       cy="16.785"
       cx="36.446999"
       d="m 37.570999,16.785 c 0,0.6528 -0.503232,1.182 -1.124,1.182 -0.620768,0 -1.124,-0.5292 -1.124,-1.182 0,-0.652801 0.503232,-1.182 1.124,-1.182 0.620768,0 1.124,0.529199 1.124,1.182 z" />
    <ellipse
       style="fill:none;stroke:#000000;stroke-width:0.1"
       transform="translate(-5.5134222,2.1844439)"
       sodipodi:ry="1.182"
       sodipodi:rx="1.124"
       sodipodi:cy="16.785"
       sodipodi:cx="36.446999"
       id="ellipse3602"
       ry="1.182"
       rx="1.124"
       cy="16.785"
       cx="36.446999"
       d="m 37.570999,16.785 c 0,0.6528 -0.503232,1.182 -1.124,1.182 -0.620768,0 -1.124,-0.5292 -1.124,-1.182 0,-0.652801 0.503232,-1.182 1.124,-1.182 0.620768,0 1.124,0.529199 1.124,1.182 z" />
    <text
       style="font-size:0.80000001px;font-style:normal;font-weight:400;text-anchor:middle;fill:#000000;font-family:sans"
       id="text3604"
       font-weight="400"
       font-style="normal"
       font-size="0.80"
       y="19.164442"
       x="30.933577">X</text>
    <ellipse
       style="fill:#ffffff;stroke:none"
       transform="translate(-5.5134222,2.1844439)"
       sodipodi:ry="1.14"
       sodipodi:rx="1.0829999"
       sodipodi:cy="22.115"
       sodipodi:cx="40.293999"
       id="ellipse3606"
       ry="1.14"
       rx="1.0829999"
       cy="22.115"
       cx="40.293999"
       d="m 41.376999,22.115 c 0,0.629604 -0.484876,1.14 -1.083,1.14 -0.598125,0 -1.083,-0.510396 -1.083,-1.14 0,-0.629605 0.484875,-1.14 1.083,-1.14 0.598124,0 1.083,0.510395 1.083,1.14 z" />
    <ellipse
       style="fill:none;stroke:#000000;stroke-width:0.1"
       transform="translate(-5.5134222,2.1844439)"
       sodipodi:ry="1.14"
       sodipodi:rx="1.0829999"
       sodipodi:cy="22.115"
       sodipodi:cx="40.293999"
       id="ellipse3608"
       ry="1.14"
       rx="1.0829999"
       cy="22.115"
       cx="40.293999"
       d="m 41.376999,22.115 c 0,0.629604 -0.484876,1.14 -1.083,1.14 -0.598125,0 -1.083,-0.510396 -1.083,-1.14 0,-0.629605 0.484875,-1.14 1.083,-1.14 0.598124,0 1.083,0.510395 1.083,1.14 z" />
    <text
       style="font-size:0.80000001px;font-style:normal;font-weight:400;text-anchor:middle;fill:#000000;font-family:sans"
       id="text3610"
       font-weight="400"
       font-style="normal"
       font-size="0.80"
       y="24.494442"
       x="34.780575">Y</text>
    <ellipse
       style="fill:#ffffff;stroke:none"
       transform="translate(-5.5134222,2.1844439)"
       sodipodi:ry="1.14"
       sodipodi:rx="1.0829999"
       sodipodi:cy="22.245001"
       sodipodi:cx="36.431"
       id="ellipse3612"
       ry="1.14"
       rx="1.0829999"
       cy="22.245001"
       cx="36.431"
       d="m 37.514,22.245001 c 0,0.629604 -0.484876,1.14 -1.083,1.14 -0.598125,0 -1.083,-0.510396 -1.083,-1.14 0,-0.629605 0.484875,-1.14 1.083,-1.14 0.598124,0 1.083,0.510395 1.083,1.14 z" />
    <ellipse
       style="fill:none;stroke:#000000;stroke-width:0.1"
       transform="translate(-5.5134222,2.1844439)"
       sodipodi:ry="1.14"
       sodipodi:rx="1.0829999"
       sodipodi:cy="22.245001"
       sodipodi:cx="36.431"
       id="ellipse3614"
       ry="1.14"
       rx="1.0829999"
       cy="22.245001"
       cx="36.431"
       d="m 37.514,22.245001 c 0,0.629604 -0.484876,1.14 -1.083,1.14 -0.598125,0 -1.083,-0.510396 -1.083,-1.14 0,-0.629605 0.484875,-1.14 1.083,-1.14 0.598124,0 1.083,0.510395 1.083,1.14 z" />
    <text
       style="font-size:0.80000001px;font-style:normal;font-weight:400;text-anchor:middle;fill:#000000;font-family:sans"
       id="text3616"
       font-weight="400"
       font-style="normal"
       font-size="0.80"
       y="24.624443"
       x="30.917578">Z</text>
    <ellipse
       style="fill:#ffffff;stroke:none"
       transform="translate(-5.5134222,2.1844439)"
       sodipodi:ry="1.14"
       sodipodi:rx="1.0829999"
       sodipodi:cy="16.575001"
       sodipodi:cx="40.289001"
       id="ellipse3618"
       ry="1.14"
       rx="1.0829999"
       cy="16.575001"
       cx="40.289001"
       d="m 41.372001,16.575001 c 0,0.629604 -0.484875,1.14 -1.083,1.14 -0.598124,0 -1.082999,-0.510396 -1.082999,-1.14 0,-0.629605 0.484875,-1.14 1.082999,-1.14 0.598125,0 1.083,0.510395 1.083,1.14 z" />
    <ellipse
       style="fill:none;stroke:#000000;stroke-width:0.1"
       transform="translate(-5.5134222,2.1844439)"
       sodipodi:ry="1.14"
       sodipodi:rx="1.0829999"
       sodipodi:cy="16.575001"
       sodipodi:cx="40.289001"
       id="ellipse3620"
       ry="1.14"
       rx="1.0829999"
       cy="16.575001"
       cx="40.289001"
       d="m 41.372001,16.575001 c 0,0.629604 -0.484875,1.14 -1.083,1.14 -0.598124,0 -1.082999,-0.510396 -1.082999,-1.14 0,-0.629605 0.484875,-1.14 1.082999,-1.14 0.598125,0 1.083,0.510395 1.083,1.14 z" />
    <text
       style="font-size:0.80000001px;font-style:normal;font-weight:400;text-anchor:middle;fill:#000000;font-family:sans"
       id="text3622"
       font-weight="400"
       font-style="normal"
       font-size="0.80"
       y="18.954443"
       x="34.775578">W</text>
    <line
       style="stroke:#000000;stroke-width:0.1"
       id="line3624"
       y2="22.752443"
       x2="30.922579"
       y1="20.201443"
       x1="30.929579" />
    <polygon
       style="fill:#000000;stroke:none"
       transform="translate(-5.5134222,2.1844439)"
       id="polygon3626"
       points="36.686,20.444 36.435,20.943 36.186,20.443 36.436,20.568 " />
    <polygon
       style="fill:none;stroke:#000000;stroke-width:0.1"
       transform="translate(-5.5134222,2.1844439)"
       id="polygon3628"
       points="36.686,20.444 36.435,20.943 36.186,20.443 36.436,20.568 " />
    <line
       style="stroke:#000000;stroke-width:0.1"
       id="line3630"
       y2="22.633442"
       x2="34.779575"
       y1="19.938442"
       x1="34.776577" />
    <polygon
       style="fill:#000000;stroke:none"
       transform="translate(-5.5134222,2.1844439)"
       id="polygon3632"
       points="40.543,20.323 40.293,20.824 40.043,20.324 40.293,20.449 " />
    <polygon
       style="fill:none;stroke:#000000;stroke-width:0.1"
       transform="translate(-5.5134222,2.1844439)"
       id="polygon3634"
       points="40.543,20.323 40.293,20.824 40.043,20.324 40.293,20.449 " />
    <line
       style="stroke:#000000;stroke-width:0.1"
       id="line3636"
       y2="23.058443"
       x2="31.850576"
       y1="19.727442"
       x1="34.117577" />
    <polygon
       style="fill:#000000;stroke:none"
       transform="translate(-5.5134222,2.1844439)"
       id="polygon3638"
       points="37.641,20.912 37.153,21.184 37.227,20.63 37.364,20.874 " />
    <polygon
       style="fill:none;stroke:#000000;stroke-width:0.1"
       transform="translate(-5.5134222,2.1844439)"
       id="polygon3640"
       points="37.641,20.912 37.153,21.184 37.227,20.63 37.364,20.874 " />
  </g>
</svg>
